<?xml version="1.0" standalone="no"?>
<!DOCTYPE svg PUBLIC "-//W3C//DTD SVG 20010904//EN"
 "http://www.w3.org/TR/2001/REC-SVG-20010904/DTD/svg10.dtd">
<svg version="1.0" xmlns="http://www.w3.org/2000/svg"
 width="225.000000pt" height="225.000000pt" viewBox="0 0 225.000000 225.000000"
 preserveAspectRatio="xMidYMid meet">

<g transform="translate(0.000000,225.000000) scale(0.100000,-0.100000)"
fill="#000000" stroke="none">
<path d="M1015 2030 c4 -6 11 -8 16 -5 14 9 11 15 -7 15 -8 0 -12 -5 -9 -10z"/>
<path d="M1268 2028 c5 -5 16 -8 23 -6 8 3 3 7 -10 11 -17 4 -21 3 -13 -5z"/>
<path d="M857 2005 c-15 -14 -24 -25 -19 -25 5 0 19 11 32 25 30 32 23 32 -13
0z"/>
<path d="M798 1993 c7 -3 16 -2 19 1 4 3 -2 6 -13 5 -11 0 -14 -3 -6 -6z"/>
<path d="M1070 1985 c-8 -10 -11 -36 -8 -76 l4 -61 -33 65 c-36 72 -57 86
-100 65 -29 -14 -38 -40 -45 -128 -3 -38 -7 -45 -26 -46 -12 -1 -31 -9 -41
-18 -25 -23 -44 -20 -58 11 -22 47 -12 63 41 63 26 0 46 18 46 41 0 24 -16 32
-57 31 -39 -2 -68 -15 -105 -50 -34 -32 -36 -67 -6 -118 l22 -38 -56 42 c-62
46 -82 50 -116 26 -29 -20 -28 -55 3 -121 27 -59 19 -68 -22 -23 -29 33 -59
38 -102 15 -29 -14 -91 -98 -91 -121 0 -18 26 -42 71 -65 21 -10 39 -21 39
-23 0 -3 -33 -2 -74 1 -68 5 -74 4 -90 -18 -32 -47 -22 -70 58 -132 41 -31 83
-57 94 -57 15 0 18 -6 14 -31 -3 -22 -8 -29 -20 -24 -8 3 -42 8 -74 12 -58 6
-58 6 -58 39 0 40 -27 61 -54 41 -23 -17 -44 -178 -27 -213 16 -37 52 -29 63
14 l9 32 69 -2 c55 -2 69 -6 65 -17 -33 -88 -29 -154 13 -204 15 -17 46 -70
69 -117 23 -47 58 -104 77 -126 44 -52 56 -82 56 -145 0 -44 3 -51 26 -61 21
-10 35 -9 70 4 24 8 44 14 44 12 0 -1 -9 -18 -20 -37 -16 -27 -18 -36 -8 -44
17 -13 90 -48 103 -49 6 0 21 -5 35 -11 39 -16 158 -36 175 -30 8 4 17 2 20
-4 9 -14 159 -4 235 16 101 27 134 45 138 78 2 15 -1 27 -7 27 -5 0 -11 10
-13 23 -3 17 7 29 46 54 l50 31 23 -31 c13 -17 28 -34 35 -38 15 -9 120 72
139 107 7 14 28 41 46 61 18 19 33 41 33 49 0 8 9 23 20 34 11 11 20 29 20 39
0 11 5 23 11 26 5 4 8 12 6 18 -2 7 2 18 9 25 7 7 11 19 8 26 -3 8 -1 17 5 21
6 3 11 19 11 34 0 15 5 32 10 37 7 7 5 18 -8 35 -10 13 -21 32 -25 42 -4 10
-17 17 -32 17 -38 0 -31 26 20 78 35 35 45 53 45 79 0 26 -6 36 -25 45 -41 18
-101 80 -113 117 -7 18 -26 57 -44 85 -17 28 -48 78 -69 111 l-36 60 28 85
c34 104 35 124 7 150 -35 32 -67 25 -135 -30 -62 -50 -63 -50 -82 -31 -17 17
-18 24 -9 55 11 34 14 36 43 30 22 -4 35 -1 44 10 24 28 -9 60 -87 85 -87 28
-116 26 -120 -11 -3 -22 2 -29 22 -34 29 -7 30 -9 15 -53 -7 -19 -18 -31 -29
-31 -10 0 -25 -3 -33 -6 -26 -10 -32 34 -8 60 37 39 22 88 -34 112 -46 19
-139 18 -155 -1z m168 -38 c35 -32 31 -42 -36 -83 -2 -1 7 -17 18 -37 14 -23
17 -38 10 -42 -15 -9 -26 1 -51 45 -25 44 -48 52 -51 18 0 -13 -1 -30 -2 -38
-1 -8 -9 -16 -19 -18 -15 -3 -17 6 -17 86 0 49 3 92 7 95 14 15 118 -4 141
-26z m-222 -57 c18 -36 33 -73 34 -82 0 -19 -26 -25 -32 -7 -6 19 -75 0 -81
-23 -4 -12 -10 -17 -18 -13 -8 6 -10 31 -5 93 3 46 9 89 12 94 3 5 17 8 32 6
20 -2 32 -16 58 -68z m407 30 c31 -12 57 -26 57 -31 0 -12 -27 -12 -50 1 -16
9 -21 2 -39 -52 l-21 -63 22 -17 c36 -27 17 -29 -48 -7 -73 25 -93 42 -45 37
31 -3 35 0 46 32 7 20 16 50 19 67 6 28 5 31 -24 36 -16 4 -30 12 -30 18 0 14
36 8 113 -21z m-602 -24 c-6 -7 -29 -16 -51 -20 -26 -4 -41 -12 -45 -25 -6
-20 25 -94 45 -106 13 -8 70 14 70 26 0 5 7 9 15 9 47 0 -28 -61 -77 -62 -34
-1 -66 30 -89 84 -9 23 -8 33 6 54 19 29 67 53 109 54 23 0 26 -3 17 -14z
m359 -118 c0 -5 -9 -8 -21 -8 -15 0 -19 4 -15 16 3 9 6 23 6 32 1 12 5 10 15
-8 8 -14 14 -28 15 -32z m439 35 l22 -18 -27 -88 c-21 -66 -31 -87 -43 -84 -9
1 -15 12 -14 22 3 27 -57 66 -87 58 -38 -10 -20 20 45 75 33 28 65 51 71 52 7
0 21 -8 33 -17z m-973 -74 c74 -52 89 -76 42 -71 -27 2 -71 -36 -66 -58 2 -7
-3 -15 -10 -17 -12 -5 -82 133 -82 162 0 11 24 33 38 35 2 0 37 -23 78 -51z
m359 31 c-3 -5 -15 -10 -26 -10 -11 0 -17 5 -14 10 3 6 15 10 26 10 11 0 17
-4 14 -10z m108 -57 c-7 -2 -19 -2 -25 0 -7 3 -2 5 12 5 14 0 19 -2 13 -5z
m-343 -27 c0 -2 -7 -6 -15 -10 -8 -3 -15 -1 -15 4 0 6 7 10 15 10 8 0 15 -2
15 -4z m395 -6 c9 7 18 10 22 6 3 -3 1 -6 -6 -6 -7 0 -10 -4 -6 -9 11 -18 -13
-21 -32 -3 -10 9 -13 13 -6 8 8 -5 19 -4 28 4z m104 -26 c-15 -18 -22 -13 -13
10 3 9 10 13 16 10 5 -3 4 -12 -3 -20z m261 -6 c0 -12 -13 -9 -32 6 -10 7 -15
16 -12 19 7 7 44 -14 44 -25z m-330 -23 c-24 -25 -46 -45 -48 -45 -9 0 73 88
83 89 5 1 -11 -19 -35 -44z m-716 19 c9 -8 16 -22 16 -30 0 -8 8 -14 19 -14
27 0 44 -26 37 -56 -8 -30 -48 -94 -59 -94 -16 0 -147 82 -147 92 0 18 40 77
67 98 31 24 46 25 67 4z m679 -27 c-3 -4 -11 0 -19 10 -10 13 -13 14 -14 4 0
-8 -3 -12 -6 -8 -14 14 7 26 26 15 10 -7 16 -16 13 -21z m-486 6 c-9 -9 -19
-14 -23 -11 -10 10 6 28 24 28 15 0 15 -1 -1 -17z m456 -30 c-3 -7 -6 -13 -8
-13 -2 0 -5 6 -8 13 -3 8 1 14 8 14 7 0 11 -6 8 -14z m-50 -36 c4 3 2 12 -4
20 -9 9 -8 13 0 13 6 0 11 -6 11 -12 0 -9 4 -8 10 2 5 8 10 11 10 6 0 -5 -7
-18 -17 -28 -15 -17 -17 -17 -35 -2 -10 10 -18 22 -18 27 0 6 8 0 19 -11 10
-12 21 -19 24 -15z m272 23 c-3 -5 -11 -10 -16 -10 -6 0 -7 5 -4 10 3 6 11 10
16 10 6 0 7 -4 4 -10z m224 -35 c17 -20 31 -47 31 -61 0 -35 -28 -91 -54 -109
-25 -18 -86 -19 -108 -2 -31 23 -58 82 -58 124 0 57 33 83 105 83 48 0 56 -3
84 -35z m-979 18 c0 -5 -5 -15 -10 -23 -8 -12 -10 -11 -10 8 0 12 5 22 10 22
6 0 10 -3 10 -7z m510 -26 c0 -1 -37 -38 -82 -82 l-83 -80 80 83 c74 76 85 87
85 79z m113 -38 l16 -41 31 22 c16 12 38 20 47 18 31 -6 24 -27 -16 -48 -23
-11 -41 -24 -41 -29 0 -13 48 -82 82 -118 29 -30 30 -31 10 -42 -52 -28 -87
-11 -123 60 -16 33 -32 59 -35 59 -4 0 -21 -9 -40 -20 -49 -31 -56 -5 -8 35
l38 32 -18 48 c-16 39 -16 49 -5 56 28 18 46 9 62 -32z m-177 3 c-13 -13 -18
-14 -28 -3 -11 10 -10 11 5 5 10 -3 17 -3 16 2 -3 18 1 25 12 18 7 -4 6 -11
-5 -22z m-43 -46 c-3 -4 -9 -2 -14 5 -13 22 -11 31 5 17 8 -7 12 -17 9 -22z
m-317 -48 c3 -12 16 -30 28 -41 21 -18 21 -18 -6 -2 -15 9 -36 31 -47 48 -12
18 -21 28 -21 24 0 -4 -10 -3 -21 4 -17 9 -19 13 -8 19 17 11 65 -23 75 -52z
m-228 11 c24 -9 22 -29 -2 -29 -22 0 -46 -61 -34 -83 22 -42 -10 -36 -76 14
-75 56 -83 68 -66 98 10 19 17 21 83 15 40 -4 82 -11 95 -15z m467 -40 c16 -7
12 -8 -15 -5 -20 2 -55 1 -79 -4 -23 -4 -39 -4 -34 0 18 18 98 23 128 9z
m-459 -35 c-3 -9 -6 -20 -6 -25 0 -6 -4 -8 -9 -5 -12 8 -2 46 11 46 6 0 7 -7
4 -16z m215 -21 c13 -16 12 -17 -3 -4 -10 7 -18 15 -18 17 0 8 8 3 21 -13z
m411 -15 c8 -13 23 -47 32 -75 10 -29 22 -53 27 -53 24 0 5 -30 -23 -39 -40
-11 -62 10 -78 72 -6 23 -14 50 -18 61 -7 17 -9 17 -25 -7 -34 -52 -32 -71 14
-123 l42 -48 -29 -13 c-16 -7 -34 -12 -39 -13 -6 0 -30 37 -55 83 -45 85 -49
121 -12 115 11 -2 33 11 51 30 40 40 91 44 113 10z m94 -11 c2 -7 0 -24 -6
-38 -10 -23 -10 -22 -7 8 2 18 -1 35 -7 37 -7 3 -6 5 2 5 7 1 15 -5 18 -12z
m446 -13 c-4 -25 -33 -47 -45 -35 -13 13 20 64 36 58 7 -2 11 -13 9 -23z
m-1380 -58 l-3 -34 75 -7 c50 -5 76 -12 80 -21 8 -22 -18 -27 -95 -20 l-69 6
0 -34 c0 -19 -5 -38 -11 -42 -9 -5 -11 17 -7 83 5 87 13 121 26 108 3 -3 5
-21 4 -39z m1508 19 c17 -9 30 -21 30 -28 0 -7 -35 -33 -77 -57 -54 -32 -78
-51 -78 -64 0 -11 5 -21 11 -23 12 -4 104 55 146 95 25 23 58 25 58 3 0 -18
-72 -80 -122 -105 -55 -28 -116 -34 -136 -14 -7 7 -12 29 -12 49 0 115 93 189
180 144z m-1084 -63 c-12 -11 -16 6 -9 39 l8 34 3 -33 c2 -19 1 -36 -2 -40z
m197 10 c28 -25 77 -104 77 -124 0 -10 -8 -22 -17 -25 -10 -4 -24 -14 -30 -24
-7 -9 -31 -24 -54 -33 -40 -16 -43 -16 -61 1 -22 22 -26 79 -9 111 7 13 26 31
42 41 l31 19 -22 15 c-30 21 -40 15 -74 -39 -18 -28 -34 -44 -45 -42 -26 5
-24 33 6 68 49 58 112 72 156 32z m-267 -88 c66 -68 76 -87 48 -98 -35 -13
-93 13 -121 55 -19 29 -29 36 -34 27 -22 -33 5 -121 39 -130 11 -3 48 7 83 23
79 35 87 35 101 3 25 -54 -56 -142 -140 -152 -36 -4 -48 -1 -59 13 -7 11 -13
22 -13 26 0 12 37 17 54 7 13 -7 23 -5 37 8 29 26 25 46 -7 34 -14 -6 -49 -10
-78 -10 -68 0 -88 20 -88 88 0 72 58 172 100 172 8 0 43 -30 78 -66z m664 22
c0 -3 -4 -8 -10 -11 -5 -3 -10 -1 -10 4 0 6 5 11 10 11 6 0 10 -2 10 -4z m228
-32 c26 -7 29 -26 7 -44 -13 -10 -19 -9 -35 5 -17 15 -24 16 -45 7 -19 -9 -25
-19 -25 -44 0 -33 33 -78 57 -78 25 0 13 -16 -23 -29 -20 -7 -39 -9 -43 -5 -4
5 -25 33 -45 62 -31 43 -36 55 -26 67 7 8 17 15 22 15 5 0 26 11 46 25 37 25
67 30 110 19z m-269 -40 c6 -15 39 -60 73 -100 59 -72 69 -104 32 -104 -9 0
-29 -11 -46 -25 -37 -31 -104 -51 -123 -35 -38 31 -22 133 23 152 15 7 29 14
32 16 2 2 -13 19 -35 38 l-40 34 30 25 c37 31 39 31 54 -1z m-152 -50 c-3 -3
-12 -4 -19 -1 -8 3 -5 6 6 6 11 1 17 -2 13 -5z m22 -27 c-2 -1 -13 -9 -24 -17
-19 -14 -19 -14 -6 3 7 9 18 17 24 17 6 0 8 -1 6 -3z m-36 -119 c9 -7 25 -34
36 -60 11 -27 26 -48 33 -48 26 0 -19 -31 -53 -36 -33 -6 -36 -4 -51 33 -9 21
-19 46 -22 56 -3 9 -9 17 -13 17 -10 0 -53 -63 -53 -76 1 -5 21 -25 45 -44
l45 -35 -33 -12 c-52 -19 -60 -15 -99 43 -51 74 -49 105 6 95 5 -1 15 8 23 19
20 28 72 60 99 60 11 0 28 -6 37 -12z m777 -30 c11 -7 10 -7 -6 -3 -27 7 -40
-20 -16 -34 9 -5 14 -12 10 -16 -3 -4 -23 3 -45 15 -24 14 -30 19 -15 16 27
-5 43 21 21 36 -18 12 29 0 51 -14z m-1096 -69 c19 -31 121 -113 156 -124 25
-8 18 -20 -21 -40 -27 -14 -33 -14 -64 1 -32 15 -35 15 -60 -3 -20 -14 -25
-25 -23 -53 3 -30 -1 -37 -26 -48 -15 -8 -32 -10 -36 -6 -5 5 -10 67 -12 137
-3 125 -2 129 21 148 32 26 44 24 65 -12z m1006 6 c-19 -23 -5 -29 22 -11 14
9 28 13 31 9 12 -11 8 -40 -8 -53 -18 -15 -20 1 -3 18 19 19 0 27 -21 8 -22
-20 -41 -14 -41 13 0 20 8 31 23 31 5 0 4 -7 -3 -15z m-368 -27 c-8 -8 -9 -4
-5 13 4 13 8 18 11 10 2 -7 -1 -18 -6 -23z m-159 -10 c-13 -6 -23 -15 -23 -20
0 -5 10 -4 23 2 21 11 21 11 2 -5 -11 -8 -25 -13 -32 -11 -7 3 -15 1 -18 -4
-4 -6 0 -10 7 -10 9 0 9 -3 -2 -10 -8 -5 -19 -10 -25 -10 -5 0 -3 5 5 10 12 8
12 10 1 10 -18 0 15 39 44 51 30 12 44 9 18 -3z m360 -13 c-3 -9 -8 -14 -10
-11 -3 3 -2 9 2 15 9 16 15 13 8 -4z m165 -11 c25 -17 29 -46 8 -63 -10 -8
-20 -6 -42 11 -16 12 -31 23 -33 25 -5 4 30 43 38 43 4 0 17 -7 29 -16z m-351
-9 c9 -24 -1 -27 -15 -5 -8 13 -8 20 -2 20 6 0 13 -7 17 -15z m-257 -35 c0 -5
-7 -7 -15 -4 -8 4 -15 8 -15 10 0 2 7 4 15 4 8 0 15 -4 15 -10z m80 6 c0 -2
-7 -7 -16 -10 -8 -3 -12 -2 -9 4 6 10 25 14 25 6z m110 -6 c0 -12 -28 -25 -36
-17 -9 9 6 27 22 27 8 0 14 -5 14 -10z m-230 -4 c0 -3 -4 -8 -10 -11 -5 -3
-10 -1 -10 4 0 6 5 11 10 11 6 0 10 -2 10 -4z m638 -36 c4 0 -4 -7 -16 -16
-12 -8 -20 -20 -17 -25 4 -5 2 -9 -3 -9 -13 0 -52 62 -46 72 3 4 21 1 41 -7
19 -8 38 -15 41 -15z m-245 -15 c-7 -21 -13 -19 -13 6 0 11 4 18 10 14 5 -3 7
-12 3 -20z m127 -20 c-17 -20 -5 -32 15 -15 9 8 15 8 15 2 0 -6 -5 -14 -10
-17 -6 -4 -8 -11 -4 -16 4 -6 14 -3 25 7 10 9 19 13 19 7 0 -5 -8 -17 -18 -26
-17 -16 -20 -15 -47 13 -28 29 -28 30 -10 50 21 23 35 19 15 -5z m-371 -2 c-6
-10 -21 -18 -34 -18 -13 0 -21 3 -18 8 2 4 13 7 23 7 10 0 22 5 25 10 3 6 8
10 11 10 2 0 -1 -8 -7 -17z m151 -11 c0 -12 -68 -48 -76 -40 -3 4 11 16 33 27
45 24 43 23 43 13z m-224 -13 c3 -6 15 -9 25 -6 11 3 17 1 14 -3 -3 -5 -19
-11 -35 -15 -17 -4 -28 -11 -25 -16 4 -5 -2 -6 -11 -2 -11 4 -15 3 -10 -5 3
-6 1 -14 -6 -18 -9 -6 -5 -10 12 -15 23 -6 23 -7 3 -8 -24 -1 -39 14 -24 23 5
4 8 19 5 34 -3 17 -1 22 4 14 5 -7 16 -10 25 -6 20 7 22 20 5 27 -10 4 -10 6
-1 6 6 1 15 -4 19 -10z m444 -50 c0 -5 -7 -6 -15 -3 -24 9 -38 -5 -23 -24 7
-10 0 -6 -15 7 -15 14 -27 29 -27 35 0 5 6 2 13 -8 12 -16 15 -16 26 -3 8 10
9 17 1 22 -5 3 -10 11 -10 17 0 6 11 1 25 -12 14 -13 25 -27 25 -31z m-205 1
c3 -5 1 -10 -4 -10 -6 0 -11 5 -11 10 0 6 2 10 4 10 3 0 8 -4 11 -10z m-111
-40 c-22 -9 -29 -6 -20 9 4 6 14 7 23 4 15 -6 14 -7 -3 -13z m-47 4 c-3 -3
-12 -4 -19 -1 -8 3 -5 6 6 6 11 1 17 -2 13 -5z m-486 -60 c-15 -19 -21 -22
-21 -10 0 9 4 16 9 16 5 0 12 10 16 23 4 13 8 17 11 10 3 -7 -4 -25 -15 -39z
m376 40 c-3 -3 -12 -4 -19 -1 -8 3 -5 6 6 6 11 1 17 -2 13 -5z m-327 -54 c-14
-33 -30 -31 -30 3 0 17 3 19 9 8 7 -11 10 -9 16 8 4 13 9 20 12 17 3 -3 0 -19
-7 -36z m568 29 c-26 -15 -22 -27 10 -32 25 -4 25 -4 -5 -6 -26 -1 -33 3 -33
18 0 18 12 29 35 30 6 0 2 -4 -7 -10z m-500 -50 c-1 -16 -5 -32 -11 -36 -6 -3
-8 7 -5 26 2 17 1 31 -4 31 -5 0 -6 5 -3 10 11 18 24 1 23 -31z m423 22 c-8
-5 -11 -16 -8 -25 4 -9 3 -16 -2 -16 -14 0 -20 39 -7 44 20 8 32 6 17 -3z
m-342 -15 c8 -10 9 -16 1 -21 -5 -3 -10 1 -10 9 0 29 -28 17 -35 -15 -4 -17
-9 -28 -12 -25 -3 2 -2 18 2 35 7 34 34 42 54 17z m299 -19 c2 -15 -1 -27 -7
-27 -6 0 -11 6 -11 14 0 8 -3 22 -7 32 -4 12 -2 15 8 12 8 -2 15 -17 17 -31z
m-418 4 c0 -5 -7 -12 -16 -15 -14 -5 -15 -4 -4 9 14 17 20 19 20 6z m155 -25
c0 -19 -3 -32 -7 -29 -14 8 -8 63 6 63 1 0 1 -15 1 -34z m90 -36 c7 0 16 10
18 23 4 18 4 17 6 -6 1 -24 -2 -28 -21 -25 -19 2 -23 10 -24 38 -1 35 -1 35 3
3 3 -19 10 -33 18 -33z m85 66 c0 -11 -19 -15 -25 -6 -3 5 1 10 9 10 9 0 16
-2 16 -4z m240 -1 c0 -2 -10 -9 -22 -15 -22 -11 -22 -10 -4 4 21 17 26 19 26
11z m-176 -58 c7 -6 6 -7 -4 -4 -8 2 -16 14 -17 28 -1 19 -1 20 4 4 3 -11 10
-24 17 -28z m-198 22 c3 -6 1 -16 -6 -22 -10 -9 -11 -9 -5 2 4 8 2 17 -6 22
-9 6 -10 9 -2 9 6 0 15 -5 19 -11z m134 -14 c0 -17 -5 -25 -17 -24 -11 0 -13
3 -5 6 6 2 12 13 12 24 0 10 2 19 5 19 3 0 5 -11 5 -25z m163 13 c-2 -5 -13
-8 -24 -8 -10 0 -19 3 -19 8 0 4 11 7 24 7 13 0 22 -3 19 -7z"/>
<path d="M1130 1920 c0 -26 4 -30 26 -30 14 0 34 5 45 10 31 17 7 50 -36 50
-32 0 -35 -2 -35 -30z"/>
<path d="M957 1895 c-4 -9 -7 -29 -7 -44 0 -25 3 -28 25 -23 29 5 30 7 6 51
-15 27 -19 30 -24 16z"/>
<path d="M1555 1759 c-17 -13 -32 -25 -35 -27 -3 -2 6 -13 20 -24 l24 -20 13
38 c18 52 13 59 -22 33z"/>
<path d="M580 1734 c0 -14 24 -74 30 -74 9 1 44 30 39 33 -30 24 -69 47 -69
41z"/>
<path d="M411 1599 c-26 -28 -26 -41 -1 -57 18 -11 22 -9 40 20 11 18 18 38
17 43 -7 19 -35 16 -56 -6z"/>
<path d="M470 1545 c-23 -25 -23 -25 -4 -40 10 -8 22 -15 26 -15 14 0 40 50
34 65 -8 22 -29 18 -56 -10z"/>
<path d="M1446 1525 c-8 -32 9 -98 30 -116 23 -19 58 20 58 65 0 65 -74 107
-88 51z"/>
<path d="M330 1390 c0 -10 49 -50 60 -50 7 0 22 42 17 46 -10 7 -77 11 -77 4z"/>
<path d="M1661 1194 c-32 -41 -25 -48 21 -21 50 29 59 47 25 47 -16 0 -34 -10
-46 -26z"/>
<path d="M835 1091 c-11 -25 -15 -50 -11 -65 6 -25 8 -25 30 -11 35 23 49 56
37 88 -15 38 -35 34 -56 -12z"/>
<path d="M1206 908 c-20 -28 -20 -72 -1 -88 12 -10 20 -9 39 4 37 23 42 53 15
82 -28 30 -34 30 -53 2z"/>
<path d="M723 643 c4 -31 24 -42 33 -19 6 17 -11 46 -28 46 -5 0 -7 -12 -5
-27z"/>
<path d="M1706 691 c-3 -5 5 -16 19 -25 29 -19 48 0 20 21 -22 15 -32 16 -39
4z"/>
<path d="M1685 610 c3 -5 8 -10 11 -10 2 0 4 5 4 10 0 6 -5 10 -11 10 -5 0 -7
-4 -4 -10z"/>
<path d="M700 1970 c-9 -6 -10 -10 -3 -10 6 0 15 5 18 10 8 12 4 12 -15 0z"/>
<path d="M1550 1921 c0 -5 5 -13 10 -16 6 -3 10 -2 10 4 0 5 -4 13 -10 16 -5
3 -10 2 -10 -4z"/>
<path d="M1630 1899 c14 -6 36 -20 50 -32 14 -12 11 -7 -7 11 -18 17 -41 32
-50 31 -13 0 -11 -3 7 -10z"/>
<path d="M590 1870 c-13 -8 -12 -10 3 -10 9 0 17 5 17 10 0 12 -1 12 -20 0z"/>
<path d="M1711 1814 c0 -11 3 -14 6 -6 3 7 2 16 -1 19 -3 4 -6 -2 -5 -13z"/>
<path d="M1711 1764 c0 -11 3 -14 6 -6 3 7 2 16 -1 19 -3 4 -6 -2 -5 -13z"/>
<path d="M440 1756 c0 -8 -6 -17 -12 -19 -8 -3 -6 -6 5 -6 11 -1 17 6 17 19 0
11 -2 20 -5 20 -3 0 -5 -6 -5 -14z"/>
<path d="M1696 1714 c-4 -14 -5 -28 -3 -31 3 -2 8 8 11 23 4 14 5 28 3 31 -3
2 -8 -8 -11 -23z"/>
<path d="M302 1643 c-26 -38 -34 -53 -29 -53 2 0 16 18 31 40 29 45 28 56 -2
13z"/>
<path d="M1670 1590 c6 -11 13 -20 16 -20 2 0 0 9 -6 20 -6 11 -13 20 -16 20
-2 0 0 -9 6 -20z"/>
<path d="M1690 1556 c0 -8 61 -96 67 -96 6 0 -13 32 -41 69 -14 19 -26 31 -26
27z"/>
<path d="M260 1530 c0 -6 -12 -22 -27 -36 l-28 -25 33 22 c27 19 44 49 27 49
-3 0 -5 -5 -5 -10z"/>
<path d="M188 1347 c-3 -19 -2 -25 4 -19 6 6 8 18 6 28 -3 14 -5 12 -10 -9z"/>
<path d="M141 1234 c0 -11 3 -14 6 -6 3 7 2 16 -1 19 -3 4 -6 -2 -5 -13z"/>
<path d="M133 1145 c0 -27 2 -38 4 -22 2 15 2 37 0 50 -2 12 -4 0 -4 -28z"/>
<path d="M1951 1174 c0 -11 3 -14 6 -6 3 7 2 16 -1 19 -3 4 -6 -2 -5 -13z"/>
<path d="M1937 1135 c-4 -11 -10 -27 -13 -35 -3 -8 1 -5 11 8 9 12 15 28 13
34 -3 7 -7 4 -11 -7z"/>
<path d="M1890 1055 c0 -8 4 -15 10 -15 5 0 7 7 4 15 -4 8 -8 15 -10 15 -2 0
-4 -7 -4 -15z"/>
<path d="M311 1053 c0 -5 4 -17 8 -28 7 -17 8 -17 13 8 4 19 1 27 -8 27 -8 0
-14 -3 -13 -7z"/>
<path d="M297 1033 c-4 -3 -7 -11 -7 -17 0 -6 5 -5 12 2 6 6 9 14 7 17 -3 3
-9 2 -12 -2z"/>
<path d="M1910 1025 c0 -4 9 -18 20 -32 11 -14 20 -22 20 -18 0 4 -9 18 -20
32 -11 14 -20 22 -20 18z"/>
<path d="M260 1000 c-9 -6 -10 -10 -3 -10 6 0 15 5 18 10 8 12 4 12 -15 0z"/>
<path d="M1952 940 c0 -14 2 -19 5 -12 2 6 2 18 0 25 -3 6 -5 1 -5 -13z"/>
<path d="M1932 863 c-7 -25 -11 -47 -9 -50 2 -2 10 17 17 42 7 25 11 48 8 50
-2 2 -10 -16 -16 -42z"/>
<path d="M381 844 c13 -17 26 -30 28 -27 3 2 -8 16 -24 31 l-28 27 24 -31z"/>
<path d="M426 757 c3 -10 9 -15 12 -12 3 3 0 11 -7 18 -10 9 -11 8 -5 -6z"/>
<path d="M1885 729 c-4 -6 -5 -12 -2 -15 2 -3 7 2 10 11 7 17 1 20 -8 4z"/>
<path d="M1856 668 l-18 -33 21 25 c18 22 26 40 18 40 -1 0 -11 -15 -21 -32z"/>
<path d="M511 622 c13 -19 30 -44 36 -55 8 -14 13 -17 12 -7 0 8 -16 33 -35
55 -30 33 -32 34 -13 7z"/>
<path d="M1821 607 c-13 -21 -12 -21 5 -5 10 10 16 20 13 22 -3 3 -11 -5 -18
-17z"/>
<path d="M1730 500 c-41 -44 -73 -80 -70 -80 6 0 84 81 129 133 50 56 13 24
-59 -53z"/>
<path d="M551 524 c0 -11 3 -14 6 -6 3 7 2 16 -1 19 -3 4 -6 -2 -5 -13z"/>
<path d="M561 464 c0 -11 3 -14 6 -6 3 7 2 16 -1 19 -3 4 -6 -2 -5 -13z"/>
<path d="M576 427 c3 -10 9 -15 12 -12 3 3 0 11 -7 18 -10 9 -11 8 -5 -6z"/>
<path d="M1493 389 c1 -39 3 -46 9 -29 5 13 6 32 2 42 -6 19 -5 19 23 2 l28
-19 -25 28 c-14 14 -28 27 -31 27 -4 0 -6 -23 -6 -51z"/>
<path d="M614 394 c11 -7 25 -14 32 -14 6 0 19 -10 28 -22 l16 -23 -8 24 c-6
15 -22 28 -48 37 -34 11 -37 11 -20 -2z"/>
<path d="M1568 383 c6 -2 18 -2 25 0 6 3 1 5 -13 5 -14 0 -19 -2 -12 -5z"/>
<path d="M1464 308 l-19 -23 23 19 c12 11 22 21 22 23 0 8 -8 2 -26 -19z"/>
<path d="M750 300 c19 -11 40 -19 45 -19 6 0 -6 8 -25 19 -19 11 -39 19 -45
19 -5 0 6 -8 25 -19z"/>
<path d="M1385 275 c-40 -19 -16 -19 26 0 19 8 27 14 19 14 -8 0 -28 -7 -45
-14z"/>
<path d="M825 270 c27 -12 43 -12 25 0 -8 5 -22 9 -30 9 -10 0 -8 -3 5 -9z"/>
<path d="M1300 250 c-20 -6 -21 -8 -5 -8 11 0 29 3 40 8 25 11 -1 11 -35 0z"/>
<path d="M968 233 c7 -3 16 -2 19 1 4 3 -2 6 -13 5 -11 0 -14 -3 -6 -6z"/>
<path d="M1248 233 c7 -3 16 -2 19 1 4 3 -2 6 -13 5 -11 0 -14 -3 -6 -6z"/>
<path d="M1118 223 c6 -2 18 -2 25 0 6 3 1 5 -13 5 -14 0 -19 -2 -12 -5z"/>
</g>
</svg>
